<svg width="31" height="30" viewBox="0 0 31 30" fill="none" xmlns="http://www.w3.org/2000/svg">
<path d="M4.72866 20.3171L8.76466 17.2308C8.53388 16.5298 8.40909 15.78 8.40909 15C8.40909 14.22 8.53388 13.4701 8.76466 12.7692L4.72866 9.68286C3.94149 11.2832 3.5 13.0876 3.5 15C3.5 16.9124 3.94149 18.7168 4.72866 20.3171Z" fill="#FBBC05"/>
<path d="M4.72705 20.3138C6.6783 24.284 10.7566 27 15.5 27C21.5 27 26.9546 22.6364 26.9546 15C26.9546 14.2909 26.8455 13.5273 26.6818 12.8182H15.5V17.4545H21.9364C21.3364 20.4 18.8273 22.0909 15.5 22.0909C12.349 22.0909 9.68964 20.0544 8.7614 17.2208L4.72705 20.3138Z" fill="#34A853"/>
<path d="M8.76463 12.7692C9.69583 9.94087 12.3527 7.90909 15.5 7.90909C17.1909 7.90909 18.7182 8.50909 19.9182 9.49091L23.4091 6C21.2818 4.14545 18.5545 3 15.5 3C10.7579 3 6.68053 5.71451 4.72864 9.68286L8.76463 12.7692Z" fill="#EA4335"/>
<path d="M15.5 12.8182H26.6818C26.8455 13.5273 26.9545 14.2909 26.9545 15C26.9545 18.9111 25.5237 21.9638 23.3215 24.0114L19.49 21.045C20.7428 20.2543 21.6144 19.035 21.9364 17.4545H15.5V12.8182Z" fill="#4285F4"/>
</svg>
